<svg id="svg" version="1.1" xmlns="http://www.w3.org/2000/svg" xmlns:xlink="http://www.w3.org/1999/xlink" width="400" height="143.14002828854314" viewBox="0, 0, 400,143.14002828854314"><g id="svgg"><path id="path0" d="M23.083 16.708 C 23.033 16.915,23.013 41.721,23.038 71.833 L 23.083 126.583 36.375 126.626 L 49.667 126.669 49.667 111.334 L 49.667 96.000 69.000 96.000 L 88.333 96.000 88.333 83.417 L 88.333 70.833 69.000 70.833 L 49.667 70.833 49.667 43.583 L 49.667 16.333 36.420 16.333 L 23.173 16.333 23.083 16.708 M99.500 24.917 L 99.500 27.333 101.994 27.333 C 105.009 27.333,104.833 27.502,104.833 24.594 L 104.833 22.500 102.167 22.500 L 99.500 22.500 99.500 24.917 M288.438 23.708 C 288.286 24.278,288.319 78.552,288.472 78.794 C 288.728 79.196,316.333 78.916,316.333 78.511 C 316.333 78.440,316.596 78.395,316.917 78.411 C 317.237 78.427,317.500 78.379,317.500 78.303 C 317.500 78.228,317.556 78.176,317.625 78.186 C 318.125 78.265,319.002 78.139,318.917 78.000 C 318.857 77.903,319.023 77.833,319.314 77.833 C 319.589 77.833,319.860 77.758,319.917 77.667 C 319.973 77.575,320.184 77.500,320.385 77.501 C 320.862 77.502,322.333 76.973,322.333 76.800 C 322.333 76.727,322.521 76.667,322.750 76.667 C 322.979 76.667,323.167 76.594,323.167 76.505 C 323.167 76.416,323.291 76.392,323.444 76.450 C 323.630 76.522,323.682 76.493,323.601 76.362 C 323.529 76.245,323.583 76.167,323.734 76.167 C 324.034 76.167,325.558 75.346,325.639 75.141 C 325.669 75.064,325.801 75.000,325.931 75.000 C 326.060 75.000,326.167 74.932,326.167 74.850 C 326.167 74.767,326.373 74.626,326.625 74.536 C 326.877 74.446,327.271 74.215,327.500 74.022 C 327.729 73.829,328.128 73.501,328.386 73.294 C 329.800 72.156,331.321 70.777,331.328 70.626 C 331.331 70.558,331.479 70.333,331.657 70.126 C 331.835 69.919,332.173 69.525,332.408 69.250 C 332.643 68.975,332.877 68.619,332.929 68.458 C 332.980 68.298,333.092 68.167,333.178 68.167 C 333.263 68.167,333.333 68.060,333.333 67.931 C 333.333 67.801,333.405 67.669,333.493 67.639 C 333.842 67.517,335.981 63.244,336.119 62.393 C 336.169 62.089,336.275 61.880,336.355 61.930 C 336.435 61.979,336.500 61.832,336.500 61.603 C 336.500 61.374,336.570 61.143,336.655 61.091 C 336.740 61.038,336.862 60.582,336.924 60.079 C 336.987 59.575,337.105 59.121,337.186 59.071 C 337.267 59.021,337.333 58.775,337.333 58.523 C 337.333 58.272,337.407 57.993,337.497 57.903 C 337.587 57.813,337.711 56.860,337.773 55.786 C 337.834 54.712,337.948 53.833,338.025 53.833 C 338.103 53.833,338.167 52.708,338.167 51.333 C 338.167 49.958,338.103 48.833,338.025 48.833 C 337.948 48.833,337.833 47.877,337.771 46.708 C 337.709 45.540,337.585 44.558,337.496 44.528 C 337.406 44.497,337.333 44.258,337.333 43.996 C 337.333 43.734,337.258 43.473,337.167 43.417 C 337.075 43.360,337.000 43.098,337.000 42.833 C 337.000 42.569,336.928 42.309,336.841 42.254 C 336.753 42.200,336.721 42.053,336.769 41.928 C 336.817 41.803,336.776 41.651,336.678 41.590 C 336.580 41.530,336.500 41.297,336.500 41.073 C 336.500 40.850,336.433 40.667,336.352 40.667 C 336.270 40.667,336.167 40.423,336.122 40.125 C 336.012 39.385,335.643 38.483,335.292 38.094 C 335.131 37.916,335.000 37.639,335.000 37.478 C 335.000 37.318,334.924 37.139,334.831 37.082 C 334.737 37.024,334.704 36.907,334.757 36.822 C 334.810 36.736,334.788 36.667,334.708 36.667 C 334.628 36.667,334.459 36.404,334.333 36.083 C 334.207 35.762,334.055 35.500,333.995 35.500 C 333.935 35.500,333.744 35.237,333.572 34.917 C 333.399 34.596,333.200 34.333,333.129 34.333 C 333.058 34.333,332.999 34.240,332.997 34.125 C 332.996 34.010,332.790 33.678,332.539 33.386 C 331.458 32.129,330.913 31.456,330.861 31.315 C 330.830 31.232,330.736 31.207,330.652 31.259 C 330.569 31.311,330.500 31.285,330.500 31.202 C 330.500 31.119,330.350 30.878,330.167 30.667 C 329.983 30.455,329.833 30.322,329.833 30.372 C 329.833 30.421,329.549 30.188,329.202 29.855 C 328.472 29.155,328.041 28.807,327.386 28.390 C 327.128 28.226,326.879 28.046,326.833 27.992 C 326.787 27.937,326.637 27.841,326.500 27.778 C 326.362 27.715,326.025 27.515,325.750 27.333 C 325.475 27.152,324.987 26.872,324.667 26.710 C 324.346 26.549,324.058 26.360,324.028 26.292 C 323.997 26.223,323.880 26.167,323.767 26.167 C 323.655 26.167,323.248 26.015,322.864 25.829 C 322.479 25.643,321.940 25.446,321.666 25.391 C 321.391 25.337,321.167 25.226,321.167 25.146 C 321.167 25.066,320.994 25.000,320.783 25.000 C 320.572 25.000,320.323 24.923,320.229 24.829 C 320.135 24.735,319.670 24.612,319.196 24.556 C 318.721 24.500,318.333 24.389,318.333 24.310 C 318.333 24.231,318.071 24.167,317.750 24.167 C 317.429 24.167,317.167 24.104,317.167 24.027 C 317.167 23.950,316.923 23.877,316.625 23.865 C 313.621 23.742,311.890 23.606,311.758 23.483 C 311.668 23.398,306.628 23.333,300.069 23.333 L 288.539 23.333 288.438 23.708 M363.329 23.761 C 363.240 23.996,363.167 24.258,363.167 24.344 C 363.167 24.430,363.092 24.500,363.000 24.500 C 362.908 24.500,362.833 24.688,362.833 24.917 C 362.833 25.146,362.767 25.333,362.686 25.333 C 362.605 25.333,362.484 25.502,362.417 25.708 C 362.350 25.915,362.275 26.121,362.250 26.167 C 362.225 26.212,362.150 26.419,362.083 26.625 C 362.016 26.831,361.904 27.000,361.833 27.000 C 361.720 27.000,361.525 27.445,361.432 27.917 C 361.329 28.436,361.116 29.000,361.023 29.000 C 360.874 29.000,360.531 29.805,360.400 30.460 C 360.340 30.757,360.226 31.000,360.146 31.000 C 360.066 31.000,360.000 31.113,360.000 31.250 C 360.000 31.387,359.944 31.500,359.875 31.500 C 359.806 31.500,359.606 31.950,359.430 32.500 C 359.255 33.050,359.067 33.501,359.014 33.501 C 358.854 33.503,358.502 34.369,358.598 34.523 C 358.646 34.602,358.607 34.667,358.510 34.667 C 358.413 34.667,358.333 34.817,358.333 35.000 C 358.333 35.183,358.258 35.333,358.167 35.333 C 358.075 35.333,358.000 35.488,358.000 35.677 C 358.000 35.868,357.925 35.973,357.829 35.914 C 357.735 35.856,357.675 35.870,357.694 35.946 C 357.764 36.213,357.471 37.167,357.320 37.167 C 357.236 37.167,357.167 37.359,357.167 37.593 C 357.167 37.828,357.098 37.977,357.014 37.925 C 356.878 37.841,356.599 38.657,356.668 38.937 C 356.683 38.997,356.632 39.092,356.556 39.148 C 356.331 39.313,356.000 39.974,356.000 40.258 C 356.000 40.402,355.925 40.473,355.833 40.417 C 355.739 40.359,355.667 40.494,355.667 40.728 C 355.667 40.956,355.573 41.242,355.458 41.363 C 355.344 41.484,355.224 41.733,355.192 41.917 C 355.160 42.100,355.072 42.288,354.997 42.335 C 354.921 42.382,354.808 42.626,354.745 42.877 C 354.682 43.128,354.564 43.333,354.482 43.333 C 354.400 43.333,354.333 43.483,354.333 43.667 C 354.333 43.850,354.258 44.000,354.167 44.000 C 354.075 44.000,354.000 44.173,354.000 44.385 C 354.000 44.596,353.890 44.915,353.755 45.093 C 353.621 45.271,353.508 45.548,353.505 45.708 C 353.502 45.869,353.434 46.000,353.353 46.000 C 353.272 46.000,353.066 46.449,352.895 46.999 C 352.723 47.548,352.527 47.998,352.458 47.999 C 352.390 47.999,352.333 48.112,352.333 48.250 C 352.333 48.387,352.264 48.500,352.180 48.500 C 352.096 48.500,351.973 48.741,351.909 49.036 C 351.786 49.593,351.730 49.734,351.274 50.609 C 351.123 50.898,351.000 51.254,351.000 51.401 C 351.000 51.547,350.925 51.667,350.833 51.667 C 350.742 51.667,350.667 51.821,350.667 52.010 C 350.667 52.199,350.592 52.307,350.500 52.250 C 350.405 52.192,350.333 52.332,350.333 52.573 C 350.333 52.808,350.255 53.000,350.159 53.000 C 350.064 53.000,349.997 53.094,350.011 53.208 C 350.052 53.543,349.808 54.167,349.637 54.167 C 349.551 54.167,349.523 54.236,349.575 54.320 C 349.627 54.404,349.562 54.581,349.430 54.713 C 349.299 54.844,349.139 55.225,349.077 55.559 C 349.014 55.893,348.896 56.167,348.815 56.167 C 348.733 56.167,348.667 56.307,348.667 56.480 C 348.667 56.652,348.554 56.886,348.417 57.000 C 348.279 57.114,348.167 57.386,348.167 57.604 C 348.167 57.822,348.092 58.000,348.000 58.000 C 347.908 58.000,347.833 58.150,347.833 58.333 C 347.833 58.517,347.746 58.667,347.639 58.667 C 347.532 58.667,347.495 58.717,347.556 58.778 C 347.617 58.839,347.560 59.008,347.429 59.153 C 347.298 59.298,347.179 59.471,347.164 59.538 C 347.043 60.090,346.942 60.333,346.833 60.333 C 346.722 60.333,346.552 60.938,346.469 61.625 C 346.456 61.740,346.382 61.833,346.306 61.833 C 346.229 61.833,346.167 61.946,346.167 62.083 C 346.167 62.221,346.107 62.333,346.035 62.333 C 345.962 62.333,345.758 62.765,345.583 63.292 C 345.407 63.819,345.222 64.287,345.173 64.333 C 345.080 64.420,344.802 64.994,344.368 66.000 C 344.230 66.321,343.940 66.939,343.725 67.374 C 343.510 67.809,343.333 68.301,343.333 68.467 C 343.333 68.634,343.183 68.931,343.000 69.128 C 342.817 69.325,342.667 69.594,342.667 69.726 C 342.667 69.858,342.442 70.419,342.167 70.974 C 341.892 71.528,341.667 72.084,341.667 72.209 C 341.667 72.335,341.517 72.598,341.333 72.795 C 341.150 72.992,341.000 73.228,341.000 73.321 C 341.000 73.472,340.825 73.913,340.269 75.167 C 340.167 75.396,340.040 75.621,339.987 75.667 C 339.933 75.712,339.746 76.162,339.571 76.667 C 339.396 77.171,339.193 77.627,339.120 77.680 C 339.048 77.733,338.944 78.052,338.889 78.388 L 338.790 79.000 344.728 79.000 C 348.932 79.000,350.667 78.947,350.667 78.817 C 350.667 78.609,351.181 77.460,351.331 77.333 C 351.385 77.287,351.573 76.819,351.749 76.292 C 351.925 75.765,352.128 75.333,352.201 75.333 C 352.274 75.333,352.333 75.183,352.333 75.000 C 352.333 74.817,352.405 74.667,352.492 74.667 C 352.580 74.667,352.701 74.404,352.761 74.083 C 352.821 73.763,352.937 73.500,353.019 73.500 C 353.100 73.500,353.167 73.350,353.167 73.167 C 353.167 72.983,353.242 72.833,353.333 72.833 C 353.425 72.833,353.488 72.777,353.473 72.708 C 353.418 72.459,353.706 71.667,353.851 71.667 C 353.933 71.667,354.000 71.517,354.000 71.333 C 354.000 71.150,354.067 71.000,354.149 71.000 C 354.230 71.000,354.355 70.794,354.427 70.542 C 354.498 70.290,354.572 70.046,354.592 70.000 C 354.612 69.954,354.683 69.748,354.750 69.542 C 354.817 69.335,354.938 69.167,355.019 69.167 C 355.100 69.167,355.167 69.017,355.167 68.833 C 355.167 68.503,355.278 68.500,369.317 68.500 L 383.466 68.500 383.805 69.150 C 383.992 69.508,384.099 69.845,384.044 69.900 C 383.989 69.955,384.032 70.000,384.139 70.000 C 384.246 70.000,384.333 70.150,384.333 70.333 C 384.333 70.517,384.408 70.667,384.500 70.667 C 384.592 70.667,384.667 70.802,384.667 70.968 C 384.667 71.134,384.777 71.415,384.911 71.593 C 385.046 71.771,385.158 72.081,385.161 72.282 C 385.164 72.483,385.236 72.690,385.321 72.742 C 385.405 72.794,385.524 73.061,385.584 73.335 C 385.644 73.609,385.762 73.833,385.847 73.833 C 385.931 73.833,386.000 73.983,386.000 74.167 C 386.000 74.350,386.075 74.500,386.167 74.500 C 386.258 74.500,386.334 74.631,386.334 74.792 C 386.335 74.952,386.481 75.304,386.658 75.573 C 386.836 75.842,386.943 76.123,386.897 76.198 C 386.851 76.272,386.893 76.333,386.990 76.333 C 387.087 76.333,387.167 76.479,387.167 76.657 C 387.167 76.835,387.243 77.027,387.336 77.085 C 387.429 77.143,387.462 77.260,387.410 77.345 C 387.357 77.430,387.393 77.500,387.490 77.500 C 387.587 77.500,387.667 77.646,387.667 77.823 C 387.667 78.001,387.742 78.193,387.833 78.250 C 387.925 78.307,388.000 78.499,388.000 78.677 C 388.000 78.991,388.172 79.000,394.019 79.000 L 400.039 79.000 399.938 78.625 C 399.883 78.419,399.837 78.152,399.836 78.032 C 399.834 77.912,399.758 77.860,399.667 77.917 C 399.575 77.973,399.500 77.854,399.500 77.651 C 399.500 77.268,398.687 75.456,398.474 75.364 C 398.407 75.335,398.393 75.204,398.444 75.073 C 398.494 74.941,398.453 74.833,398.351 74.833 C 398.250 74.833,398.167 74.698,398.167 74.533 C 398.167 74.166,397.795 73.336,397.630 73.335 C 397.564 73.334,397.554 73.221,397.606 73.083 C 397.659 72.946,397.619 72.833,397.518 72.833 C 397.416 72.833,397.333 72.683,397.333 72.500 C 397.333 72.317,397.258 72.167,397.167 72.167 C 397.075 72.167,397.000 71.979,397.000 71.750 C 397.000 71.521,396.925 71.333,396.833 71.333 C 396.742 71.333,396.667 71.259,396.667 71.168 C 396.667 70.883,396.095 69.667,395.961 69.667 C 395.891 69.667,395.833 69.494,395.833 69.282 C 395.833 69.070,395.723 68.751,395.589 68.574 C 395.454 68.396,395.342 68.119,395.339 67.958 C 395.336 67.798,395.264 67.667,395.180 67.667 C 395.096 67.667,394.974 67.423,394.909 67.125 C 394.845 66.827,394.651 66.384,394.479 66.141 C 394.307 65.898,394.167 65.579,394.167 65.433 C 394.167 65.286,394.092 65.167,394.000 65.167 C 393.908 65.167,393.833 65.022,393.833 64.845 C 393.833 64.668,393.721 64.411,393.583 64.274 C 393.446 64.136,393.333 63.868,393.333 63.679 C 393.333 63.489,393.268 63.333,393.188 63.333 C 393.051 63.333,392.762 62.403,392.811 62.125 C 392.823 62.056,392.758 62.000,392.667 62.000 C 392.575 62.000,392.500 61.887,392.500 61.750 C 392.500 61.612,392.434 61.500,392.353 61.500 C 392.272 61.500,392.167 61.331,392.120 61.125 C 392.006 60.628,391.608 59.605,391.488 59.500 C 391.406 59.428,391.163 58.923,391.088 58.667 C 391.074 58.621,390.936 58.293,390.782 57.938 C 390.627 57.583,390.500 57.227,390.500 57.146 C 390.500 57.066,390.425 57.000,390.333 57.000 C 390.242 57.000,390.167 56.918,390.167 56.817 C 390.167 56.716,390.054 56.379,389.917 56.067 C 389.779 55.755,389.554 55.245,389.417 54.933 C 389.279 54.621,389.165 54.303,389.163 54.225 C 389.161 54.147,389.013 53.896,388.833 53.667 C 388.654 53.438,388.500 53.100,388.492 52.917 C 388.483 52.733,388.332 52.358,388.156 52.083 C 387.981 51.808,387.791 51.471,387.736 51.333 C 387.474 50.686,387.183 50.014,386.837 49.250 C 386.470 48.442,386.314 48.088,385.762 46.808 C 385.618 46.473,385.500 46.080,385.500 45.933 C 385.500 45.787,385.425 45.667,385.333 45.667 C 385.242 45.667,385.167 45.554,385.167 45.417 C 385.167 45.279,385.092 45.167,385.000 45.167 C 384.908 45.167,384.833 44.988,384.833 44.770 C 384.833 44.552,384.719 44.279,384.579 44.163 C 384.440 44.047,384.362 43.916,384.407 43.871 C 384.452 43.826,384.378 43.633,384.244 43.441 C 384.110 43.249,384.000 42.955,384.000 42.786 C 384.000 42.618,383.925 42.527,383.833 42.583 C 383.742 42.640,383.667 42.565,383.667 42.416 C 383.667 42.268,383.484 41.757,383.261 41.281 C 383.038 40.806,382.804 40.210,382.743 39.958 C 382.681 39.706,382.564 39.500,382.482 39.500 C 382.400 39.500,382.333 39.354,382.333 39.177 C 382.333 38.999,382.258 38.807,382.167 38.750 C 382.075 38.693,382.000 38.497,382.000 38.314 C 382.000 38.102,381.929 38.024,381.805 38.101 C 381.674 38.182,381.645 38.130,381.716 37.944 C 381.775 37.791,381.750 37.667,381.661 37.667 C 381.573 37.667,381.500 37.552,381.500 37.411 C 381.500 37.270,381.381 36.973,381.236 36.751 C 381.090 36.530,381.027 36.258,381.095 36.148 C 381.173 36.022,381.147 35.992,381.026 36.067 C 380.912 36.137,380.833 36.082,380.833 35.932 C 380.833 35.623,380.299 34.439,380.125 34.361 C 380.056 34.331,380.000 34.199,380.000 34.069 C 380.000 33.940,379.921 33.833,379.823 33.833 C 379.726 33.833,379.690 33.764,379.743 33.678 C 379.823 33.549,379.051 31.670,378.489 30.627 C 378.403 30.468,378.333 30.224,378.333 30.086 C 378.333 29.947,378.258 29.833,378.167 29.833 C 378.075 29.833,378.000 29.740,377.999 29.625 C 377.998 29.510,377.888 29.206,377.754 28.949 C 377.620 28.692,377.489 28.355,377.464 28.199 C 377.438 28.044,377.379 27.879,377.333 27.833 C 377.193 27.693,375.500 24.075,375.500 23.915 C 375.500 23.376,375.043 23.333,369.258 23.333 L 363.492 23.333 363.329 23.761 M173.333 51.333 L 173.333 79.000 178.667 79.000 L 184.000 79.000 184.000 67.917 L 184.000 56.833 197.333 56.833 L 210.667 56.833 210.667 67.917 L 210.667 79.000 216.000 79.000 L 221.333 79.000 221.333 51.333 L 221.333 23.667 216.000 23.667 L 210.667 23.667 210.667 35.250 L 210.667 46.833 197.333 46.833 L 184.000 46.833 184.000 35.250 L 184.000 23.667 178.667 23.667 L 173.333 23.667 173.333 51.333 M230.667 41.427 C 230.667 53.224,230.723 59.152,230.833 59.083 C 230.937 59.019,231.000 59.359,231.000 59.990 C 231.000 60.546,231.066 61.000,231.146 61.000 C 231.272 61.000,231.494 62.329,231.515 63.205 C 231.518 63.364,231.591 63.537,231.677 63.590 C 231.763 63.643,231.833 63.869,231.833 64.093 C 231.833 64.317,231.900 64.500,231.981 64.500 C 232.062 64.500,232.169 64.706,232.218 64.958 C 232.366 65.722,232.422 65.884,232.835 66.750 C 233.053 67.208,233.217 67.663,233.199 67.760 C 233.181 67.857,233.300 68.082,233.464 68.260 C 233.627 68.438,233.892 68.846,234.052 69.167 C 234.412 69.890,234.688 70.335,234.958 70.630 C 235.073 70.755,235.167 70.927,235.167 71.012 C 235.167 71.097,235.448 71.462,235.792 71.823 C 236.434 72.497,236.898 73.061,237.172 73.500 C 237.258 73.637,237.329 73.693,237.331 73.624 C 237.332 73.554,237.569 73.723,237.858 73.999 C 238.147 74.274,238.435 74.500,238.499 74.500 C 238.563 74.500,238.876 74.744,239.195 75.042 C 240.102 75.891,240.484 76.167,240.752 76.167 C 240.888 76.167,241.000 76.230,241.000 76.307 C 241.000 76.383,241.299 76.590,241.665 76.765 C 242.030 76.940,242.330 77.136,242.331 77.201 C 242.332 77.265,242.596 77.367,242.917 77.428 C 243.237 77.488,243.500 77.604,243.500 77.685 C 243.500 77.767,243.606 77.833,243.736 77.833 C 243.866 77.833,243.998 77.912,244.030 78.007 C 244.062 78.103,244.256 78.194,244.461 78.210 C 244.666 78.225,244.833 78.284,244.833 78.341 C 244.833 78.398,244.927 78.456,245.042 78.469 C 245.696 78.548,246.333 78.719,246.333 78.817 C 246.333 78.879,246.495 78.941,246.693 78.956 C 246.891 78.971,247.098 79.056,247.153 79.144 C 247.208 79.233,247.796 79.359,248.459 79.424 C 249.123 79.490,249.667 79.602,249.667 79.673 C 249.667 79.890,251.550 80.026,255.458 80.093 C 257.781 80.132,259.167 80.096,259.167 79.995 C 259.167 79.906,259.617 79.833,260.167 79.833 C 260.717 79.833,261.167 79.768,261.167 79.687 C 261.167 79.607,261.560 79.500,262.042 79.449 C 263.016 79.346,263.338 79.284,263.583 79.150 C 263.675 79.100,264.087 78.962,264.500 78.843 C 264.912 78.724,265.362 78.587,265.500 78.537 C 265.637 78.488,265.806 78.459,265.875 78.474 C 265.944 78.488,266.000 78.425,266.000 78.333 C 266.000 78.242,266.150 78.167,266.333 78.167 C 266.517 78.167,266.667 78.092,266.667 78.000 C 266.667 77.908,266.772 77.833,266.901 77.833 C 267.230 77.833,268.833 76.984,268.833 76.810 C 268.833 76.731,268.969 76.667,269.135 76.667 C 269.301 76.667,269.601 76.514,269.802 76.327 C 270.003 76.140,270.167 76.027,270.167 76.076 C 270.167 76.168,270.679 75.750,271.538 74.958 C 271.812 74.706,272.135 74.500,272.256 74.500 C 272.378 74.500,272.525 74.350,272.583 74.167 C 272.642 73.983,272.799 73.833,272.933 73.833 C 273.067 73.833,273.226 73.705,273.286 73.549 C 273.388 73.285,273.795 72.755,274.292 72.240 C 274.406 72.121,274.500 71.939,274.500 71.835 C 274.500 71.732,274.575 71.693,274.667 71.750 C 274.758 71.807,274.833 71.768,274.833 71.665 C 274.833 71.561,274.927 71.372,275.042 71.244 C 275.530 70.699,275.667 70.505,275.667 70.354 C 275.667 70.266,275.723 70.169,275.792 70.139 C 276.019 70.038,277.122 67.754,277.046 67.542 C 277.006 67.427,277.035 67.333,277.112 67.333 C 277.189 67.333,277.350 67.090,277.470 66.792 C 277.590 66.494,277.760 66.117,277.848 65.955 C 277.936 65.792,278.053 65.325,278.109 64.917 C 278.165 64.508,278.276 64.215,278.355 64.264 C 278.435 64.313,278.500 64.166,278.500 63.936 C 278.500 63.707,278.569 63.477,278.654 63.424 C 278.739 63.372,278.861 62.655,278.926 61.831 C 278.990 61.007,279.112 60.333,279.195 60.333 C 279.279 60.333,279.336 60.240,279.321 60.125 C 279.238 59.490,279.353 56.659,279.458 56.724 C 279.527 56.767,279.583 49.346,279.583 40.234 L 279.583 23.667 274.125 23.667 L 268.667 23.667 268.667 40.823 C 268.667 52.082,268.609 58.016,268.500 58.083 C 268.408 58.140,268.333 58.557,268.333 59.010 C 268.333 59.463,268.264 59.833,268.180 59.833 C 268.096 59.833,267.974 60.320,267.911 60.915 C 267.847 61.509,267.744 61.965,267.682 61.926 C 267.620 61.888,267.557 62.019,267.542 62.217 C 267.527 62.416,267.436 62.605,267.341 62.636 C 267.245 62.668,267.167 62.838,267.167 63.014 C 267.167 63.190,267.094 63.333,267.005 63.333 C 266.916 63.333,266.892 63.458,266.950 63.611 C 267.022 63.797,266.993 63.849,266.862 63.768 C 266.737 63.690,266.667 63.771,266.667 63.990 C 266.667 64.179,266.592 64.333,266.500 64.333 C 266.408 64.333,266.333 64.442,266.333 64.576 C 266.333 64.709,266.146 65.006,265.917 65.235 C 265.688 65.464,265.500 65.707,265.500 65.775 C 265.500 65.925,263.718 67.667,263.565 67.667 C 263.505 67.667,263.334 67.806,263.186 67.976 C 262.905 68.300,262.203 68.600,261.917 68.519 C 261.825 68.493,261.805 68.527,261.872 68.595 C 262.072 68.795,260.527 69.454,260.099 69.352 C 260.015 69.332,259.896 69.398,259.834 69.500 C 259.771 69.601,259.539 69.695,259.318 69.709 C 259.097 69.723,258.863 69.813,258.798 69.909 C 258.640 70.141,252.034 70.148,251.869 69.917 C 251.804 69.825,251.563 69.724,251.333 69.692 C 251.104 69.660,250.831 69.564,250.726 69.478 C 250.621 69.392,250.471 69.336,250.393 69.354 C 250.115 69.417,247.667 68.313,247.667 68.125 C 247.667 68.056,247.544 68.000,247.393 68.000 C 247.243 68.000,246.917 67.794,246.671 67.542 C 246.092 66.951,245.300 66.333,245.121 66.333 C 245.043 66.333,245.018 66.273,245.063 66.199 C 245.109 66.126,244.888 65.784,244.573 65.440 C 244.258 65.096,244.000 64.706,244.000 64.574 C 244.000 64.442,243.926 64.333,243.837 64.333 C 243.747 64.333,243.626 64.146,243.568 63.917 C 243.511 63.688,243.397 63.500,243.315 63.500 C 243.234 63.500,243.167 63.350,243.167 63.167 C 243.167 62.983,243.092 62.833,243.000 62.833 C 242.908 62.833,242.833 62.688,242.833 62.510 C 242.833 62.332,242.768 62.146,242.688 62.097 C 242.540 62.005,242.266 61.031,242.317 60.774 C 242.332 60.696,242.275 60.546,242.189 60.441 C 242.103 60.336,242.009 60.025,241.981 59.750 C 241.952 59.475,241.851 59.145,241.756 59.016 C 241.640 58.859,241.567 53.018,241.533 41.224 L 241.483 23.667 236.075 23.667 L 230.667 23.667 230.667 41.427 M313.292 33.996 C 313.773 33.998,314.167 34.075,314.167 34.167 C 314.167 34.258,314.429 34.333,314.750 34.333 C 315.071 34.333,315.333 34.402,315.333 34.485 C 315.333 34.569,315.523 34.617,315.754 34.591 C 315.985 34.566,316.215 34.610,316.264 34.689 C 316.313 34.768,316.574 34.833,316.843 34.833 C 317.113 34.833,317.333 34.908,317.333 35.000 C 317.333 35.092,317.440 35.167,317.570 35.167 C 317.848 35.167,318.892 35.694,318.972 35.875 C 319.003 35.944,319.090 36.000,319.166 36.000 C 319.386 36.000,320.667 36.879,320.667 37.030 C 320.667 37.105,320.772 37.167,320.900 37.167 C 321.167 37.167,322.933 38.875,323.621 39.799 C 323.874 40.139,324.122 40.454,324.172 40.500 C 324.222 40.546,324.485 41.014,324.756 41.541 C 325.028 42.068,325.306 42.499,325.375 42.500 C 325.444 42.500,325.500 42.683,325.500 42.907 C 325.500 43.131,325.569 43.356,325.654 43.409 C 325.738 43.461,325.857 43.728,325.917 44.002 C 325.977 44.276,326.080 44.500,326.144 44.500 C 326.209 44.500,326.281 44.741,326.303 45.035 C 326.326 45.329,326.410 45.611,326.491 45.661 C 326.572 45.711,326.692 46.294,326.757 46.956 C 326.822 47.618,326.941 48.120,327.021 48.070 C 327.102 48.020,327.167 49.426,327.167 51.240 C 327.167 53.033,327.107 54.500,327.033 54.500 C 326.960 54.500,326.892 54.669,326.882 54.875 C 326.838 55.792,326.608 57.000,326.477 57.000 C 326.398 57.000,326.333 57.229,326.333 57.510 C 326.333 57.807,326.264 57.977,326.167 57.917 C 326.073 57.859,326.000 57.988,326.000 58.208 C 326.000 58.425,325.890 58.749,325.755 58.926 C 325.621 59.104,325.508 59.381,325.505 59.542 C 325.502 59.702,325.433 59.833,325.351 59.833 C 325.210 59.833,324.918 60.621,324.969 60.865 C 324.982 60.928,324.845 61.027,324.663 61.084 C 324.482 61.142,324.333 61.334,324.333 61.511 C 324.333 61.688,324.258 61.833,324.167 61.833 C 324.075 61.833,324.000 61.944,324.000 62.079 C 324.000 62.332,320.908 65.500,320.661 65.500 C 320.586 65.500,320.425 65.597,320.304 65.715 C 320.127 65.886,319.058 66.465,318.667 66.599 C 318.621 66.615,318.415 66.683,318.208 66.750 C 318.002 66.817,317.833 66.930,317.833 67.001 C 317.833 67.109,317.207 67.354,316.806 67.403 C 316.744 67.411,316.638 67.473,316.569 67.542 C 316.501 67.610,316.236 67.667,315.982 67.667 C 315.728 67.667,315.473 67.742,315.417 67.833 C 315.360 67.925,315.062 68.000,314.754 68.000 C 314.446 68.000,314.163 68.094,314.125 68.208 C 314.071 68.370,312.376 68.430,306.611 68.476 L 299.167 68.536 299.167 51.187 L 299.167 33.837 305.208 33.794 C 308.531 33.770,311.512 33.804,311.833 33.871 C 312.154 33.938,312.810 33.994,313.292 33.996 M369.769 37.000 C 369.828 37.367,369.941 37.667,370.021 37.667 C 370.101 37.667,370.167 37.779,370.167 37.917 C 370.167 38.054,370.242 38.167,370.333 38.167 C 370.425 38.167,370.500 38.299,370.500 38.461 C 370.500 38.623,370.646 39.027,370.824 39.359 C 371.002 39.692,371.102 40.009,371.046 40.065 C 370.990 40.121,371.032 40.167,371.139 40.167 C 371.246 40.167,371.333 40.302,371.333 40.468 C 371.333 40.634,371.443 40.915,371.578 41.093 C 371.713 41.271,371.825 41.585,371.828 41.792 C 371.831 41.998,371.908 42.167,372.000 42.167 C 372.092 42.167,372.167 42.321,372.167 42.510 C 372.167 42.699,372.237 42.810,372.323 42.757 C 372.408 42.704,372.529 42.999,372.592 43.413 C 372.654 43.828,372.771 44.167,372.852 44.167 C 372.934 44.167,373.000 44.279,373.000 44.417 C 373.000 44.554,373.066 44.667,373.146 44.667 C 373.226 44.667,373.338 44.898,373.394 45.181 C 373.451 45.463,373.648 45.906,373.832 46.165 C 374.016 46.423,374.167 46.788,374.167 46.974 C 374.167 47.161,374.243 47.361,374.336 47.418 C 374.429 47.476,374.462 47.593,374.410 47.678 C 374.357 47.764,374.393 47.833,374.490 47.833 C 374.587 47.833,374.667 47.968,374.667 48.133 C 374.667 48.298,374.747 48.514,374.845 48.612 C 374.943 48.710,375.044 48.893,375.069 49.020 C 375.094 49.146,375.276 49.612,375.474 50.055 C 375.672 50.499,375.833 50.930,375.833 51.014 C 375.833 51.098,375.900 51.167,375.981 51.167 C 376.063 51.167,376.179 51.429,376.239 51.750 C 376.299 52.071,376.420 52.333,376.508 52.333 C 376.595 52.333,376.667 52.516,376.667 52.740 C 376.667 52.964,376.736 53.190,376.821 53.242 C 376.905 53.294,377.024 53.561,377.084 53.835 C 377.144 54.109,377.262 54.333,377.347 54.333 C 377.431 54.333,377.500 54.447,377.500 54.586 C 377.500 54.724,377.567 54.968,377.650 55.127 C 378.246 56.280,378.667 57.233,378.667 57.432 C 378.667 57.561,378.742 57.667,378.833 57.667 C 378.925 57.667,379.000 57.817,379.000 58.000 C 379.000 58.330,378.889 58.333,369.333 58.333 C 363.000 58.333,359.667 58.276,359.667 58.167 C 359.667 58.075,359.734 58.000,359.815 58.000 C 359.939 58.000,360.184 57.401,360.236 56.972 C 360.244 56.911,360.306 56.805,360.375 56.736 C 360.444 56.667,360.500 56.480,360.500 56.319 C 360.500 56.159,360.556 56.003,360.625 55.972 C 360.797 55.896,361.333 54.855,361.333 54.598 C 361.333 54.484,361.521 54.021,361.749 53.570 C 361.978 53.119,362.166 52.581,362.166 52.375 C 362.166 52.169,362.224 52.000,362.294 52.000 C 362.428 52.000,363.000 50.783,363.000 50.497 C 363.000 50.333,363.335 49.666,363.500 49.500 C 363.694 49.305,364.167 48.287,364.167 48.062 C 364.167 47.928,364.354 47.466,364.583 47.035 C 364.813 46.605,365.000 46.157,365.000 46.041 C 365.000 45.813,365.343 45.139,365.531 44.996 C 365.595 44.949,365.687 44.687,365.736 44.414 C 365.786 44.142,365.903 43.894,365.996 43.862 C 366.090 43.831,366.167 43.702,366.167 43.575 C 366.167 43.449,366.354 43.009,366.583 42.599 C 366.813 42.188,367.000 41.656,367.000 41.416 C 367.000 41.168,367.072 41.025,367.167 41.083 C 367.258 41.140,367.333 41.046,367.333 40.875 C 367.333 40.704,367.443 40.418,367.578 40.240 C 367.713 40.062,367.825 39.785,367.828 39.625 C 367.831 39.465,367.908 39.333,368.000 39.333 C 368.092 39.333,368.167 39.146,368.167 38.917 C 368.167 38.688,368.238 38.500,368.326 38.500 C 368.413 38.500,368.534 38.237,368.594 37.917 C 368.655 37.596,368.770 37.333,368.852 37.333 C 368.933 37.333,369.000 37.198,369.000 37.033 C 369.000 36.725,369.298 36.333,369.531 36.333 C 369.604 36.333,369.711 36.633,369.769 37.000 M94.042 40.105 C 93.878 40.176,93.833 42.817,93.833 52.515 L 93.833 64.835 107.042 64.793 L 120.250 64.750 120.250 52.417 L 120.250 40.083 113.958 40.047 L 107.667 40.011 107.667 42.672 L 107.667 45.333 103.250 45.333 L 98.833 45.333 98.833 42.691 L 98.833 40.048 96.542 40.032 C 95.281 40.024,94.156 40.057,94.042 40.105 " stroke="none" fill="#1cb47c" fill-rule="evenodd"></path><path id="path1" d="M0.000 71.500 L 0.000 143.000 71.750 143.000 L 143.500 143.000 143.500 71.500 L 143.500 0.000 71.750 0.000 L 0.000 0.000 0.000 71.500 M138.833 71.500 L 138.833 138.667 71.750 138.667 L 4.667 138.667 4.667 71.500 L 4.667 4.333 71.750 4.333 L 138.833 4.333 138.833 71.500 M105.333 18.667 L 105.333 21.000 108.000 21.000 L 110.667 21.000 110.667 18.667 L 110.667 16.333 108.000 16.333 L 105.333 16.333 105.333 18.667 M107.667 30.917 L 107.667 36.833 114.000 36.833 L 120.333 36.833 120.333 30.917 L 120.333 25.000 114.000 25.000 L 107.667 25.000 107.667 30.917 M93.833 98.750 L 93.833 126.667 107.083 126.667 L 120.333 126.667 120.333 98.750 L 120.333 70.833 107.083 70.833 L 93.833 70.833 93.833 98.750 M266.000 97.500 C 266.000 97.592,265.625 97.667,265.167 97.667 C 264.708 97.667,264.333 97.732,264.333 97.812 C 264.333 97.892,264.033 98.005,263.667 98.064 C 263.300 98.123,263.000 98.245,263.000 98.335 C 263.000 98.426,262.850 98.500,262.667 98.500 C 262.483 98.500,262.333 98.577,262.333 98.672 C 262.333 98.766,262.202 98.892,262.042 98.950 C 261.625 99.103,260.333 100.371,260.333 100.628 C 260.333 100.747,260.221 100.887,260.083 100.940 C 259.946 100.992,259.833 101.178,259.833 101.351 C 259.833 101.525,259.764 101.667,259.680 101.667 C 259.596 101.667,259.477 101.892,259.417 102.167 C 259.356 102.442,259.238 102.667,259.153 102.667 C 259.069 102.667,259.000 102.818,259.000 103.002 C 259.000 103.187,258.928 103.468,258.839 103.627 C 258.033 105.078,258.043 112.337,258.851 112.639 C 258.933 112.669,259.000 112.876,259.000 113.097 C 259.000 113.319,259.065 113.500,259.145 113.500 C 259.225 113.500,259.336 113.782,259.391 114.127 C 259.447 114.476,259.641 114.861,259.829 114.997 C 260.015 115.131,260.167 115.330,260.167 115.440 C 260.167 115.892,262.221 117.667,262.744 117.667 C 262.885 117.667,263.000 117.742,263.000 117.833 C 263.000 117.925,263.106 118.000,263.236 118.000 C 263.366 118.000,263.503 118.094,263.542 118.208 C 263.594 118.366,264.420 118.417,266.917 118.417 C 269.413 118.417,270.239 118.366,270.292 118.208 C 270.330 118.094,270.542 118.000,270.764 118.000 C 270.985 118.000,271.167 117.925,271.167 117.833 C 271.167 117.742,271.261 117.667,271.377 117.667 C 271.492 117.667,271.789 117.479,272.036 117.250 C 272.283 117.021,272.532 116.833,272.589 116.833 C 272.723 116.833,273.667 115.890,273.667 115.756 C 273.667 115.699,273.820 115.489,274.006 115.288 C 274.193 115.087,274.392 114.734,274.449 114.503 C 274.505 114.272,274.596 114.046,274.651 114.000 C 274.927 113.768,275.196 113.055,275.283 112.321 C 275.336 111.869,275.444 111.500,275.523 111.500 C 275.602 111.500,275.667 111.129,275.667 110.677 C 275.667 110.224,275.742 109.807,275.833 109.750 C 275.927 109.692,276.000 108.887,276.000 107.907 C 276.000 106.858,275.934 106.167,275.833 106.167 C 275.742 106.167,275.667 105.792,275.667 105.333 C 275.667 104.875,275.601 104.500,275.522 104.500 C 275.442 104.500,275.325 104.050,275.263 103.500 C 275.201 102.950,275.079 102.500,274.992 102.500 C 274.905 102.500,274.833 102.350,274.833 102.167 C 274.833 101.983,274.766 101.833,274.685 101.833 C 274.603 101.833,274.489 101.646,274.432 101.417 C 274.374 101.188,274.253 101.000,274.163 101.000 C 274.074 101.000,274.000 100.923,274.000 100.830 C 274.000 100.572,272.236 98.833,271.975 98.833 C 271.849 98.833,271.654 98.684,271.540 98.502 C 271.416 98.303,271.067 98.128,270.666 98.064 C 270.300 98.005,270.000 97.892,270.000 97.812 C 270.000 97.732,269.625 97.667,269.167 97.667 C 268.708 97.667,268.333 97.592,268.333 97.500 C 268.333 97.405,267.833 97.333,267.167 97.333 C 266.500 97.333,266.000 97.405,266.000 97.500 M359.167 97.500 C 359.167 97.592,358.792 97.667,358.333 97.667 C 357.875 97.667,357.500 97.733,357.500 97.814 C 357.500 97.896,357.162 98.013,356.750 98.075 C 356.337 98.136,356.000 98.257,356.000 98.344 C 356.000 98.430,355.922 98.500,355.826 98.500 C 355.611 98.500,355.229 98.809,354.550 99.536 C 354.439 99.654,354.252 99.833,354.133 99.934 C 353.737 100.272,353.167 101.000,353.167 101.168 C 353.167 101.259,353.095 101.333,353.008 101.333 C 352.920 101.333,352.799 101.596,352.739 101.917 C 352.679 102.237,352.563 102.500,352.481 102.500 C 352.400 102.500,352.333 102.681,352.333 102.903 C 352.333 103.124,352.255 103.332,352.160 103.363 C 352.065 103.395,351.942 103.964,351.886 104.627 C 351.830 105.291,351.721 105.833,351.642 105.833 C 351.564 105.833,351.500 106.846,351.500 108.083 C 351.500 109.321,351.564 110.333,351.643 110.333 C 351.721 110.333,351.837 110.952,351.899 111.708 C 351.962 112.465,352.085 113.108,352.173 113.139 C 352.261 113.169,352.333 113.376,352.333 113.597 C 352.333 113.819,352.400 114.000,352.481 114.000 C 352.563 114.000,352.676 114.246,352.732 114.547 C 352.789 114.848,352.984 115.202,353.167 115.334 C 353.350 115.466,353.500 115.639,353.500 115.720 C 353.500 115.994,355.159 117.492,355.580 117.597 C 355.811 117.655,356.000 117.751,356.000 117.811 C 356.000 118.385,363.104 118.773,363.292 118.208 C 363.330 118.094,363.542 118.000,363.764 118.000 C 363.985 118.000,364.167 117.930,364.167 117.845 C 364.167 117.759,364.307 117.645,364.479 117.590 C 364.863 117.468,366.500 115.918,366.500 115.676 C 366.500 115.579,366.561 115.500,366.635 115.500 C 366.799 115.500,367.333 114.322,367.333 113.958 C 367.333 113.813,367.404 113.669,367.490 113.639 C 367.576 113.608,367.698 113.190,367.761 112.708 L 367.876 111.833 366.188 111.833 C 364.799 111.833,364.500 111.878,364.500 112.083 C 364.500 112.221,364.433 112.333,364.352 112.333 C 364.270 112.333,364.155 112.596,364.094 112.917 C 364.034 113.237,363.913 113.500,363.826 113.500 C 363.738 113.500,363.667 113.578,363.667 113.674 C 363.667 113.850,363.425 114.186,363.036 114.550 C 362.486 115.064,362.346 115.167,362.192 115.167 C 362.102 115.167,361.999 115.254,361.963 115.362 C 361.747 116.009,358.305 115.636,357.530 114.881 C 357.409 114.763,357.202 114.667,357.071 114.667 C 356.940 114.667,356.833 114.525,356.833 114.351 C 356.833 114.178,356.721 113.992,356.583 113.940 C 356.446 113.887,356.333 113.691,356.333 113.505 C 356.333 113.319,356.258 113.167,356.167 113.167 C 356.075 113.167,356.000 113.054,356.000 112.917 C 356.000 112.779,355.928 112.667,355.839 112.667 C 355.751 112.667,355.628 112.292,355.568 111.833 C 355.507 111.375,355.392 111.000,355.312 111.000 C 355.232 111.000,355.167 110.550,355.167 110.000 C 355.167 109.444,355.093 109.000,355.000 109.000 C 354.908 109.000,354.833 108.587,354.833 108.083 C 354.833 107.579,354.908 107.167,355.000 107.167 C 355.092 107.167,355.167 106.759,355.167 106.260 C 355.167 105.761,355.232 105.313,355.311 105.264 C 355.391 105.214,355.506 104.797,355.567 104.337 C 355.628 103.877,355.751 103.500,355.839 103.500 C 355.928 103.500,356.000 103.388,356.000 103.250 C 356.000 103.112,356.067 103.000,356.149 103.000 C 356.230 103.000,356.344 102.813,356.402 102.583 C 356.459 102.354,356.580 102.167,356.670 102.167 C 356.760 102.167,356.833 102.086,356.833 101.988 C 356.833 101.788,357.246 101.333,357.427 101.333 C 357.491 101.333,357.691 101.165,357.869 100.958 C 358.171 100.611,358.332 100.583,360.083 100.583 C 361.833 100.583,361.994 100.611,362.297 100.958 C 362.476 101.165,362.743 101.333,362.891 101.333 C 363.039 101.333,363.207 101.521,363.265 101.750 C 363.322 101.979,363.436 102.167,363.518 102.167 C 363.600 102.167,363.667 102.279,363.667 102.417 C 363.667 102.554,363.737 102.667,363.823 102.667 C 363.909 102.667,364.030 103.004,364.092 103.417 L 364.205 104.167 365.936 104.167 L 367.667 104.167 367.667 103.333 C 367.667 102.875,367.592 102.500,367.500 102.500 C 367.408 102.500,367.333 102.313,367.333 102.083 C 367.333 101.854,367.267 101.667,367.185 101.667 C 367.104 101.667,366.988 101.404,366.928 101.083 C 366.867 100.763,366.747 100.500,366.659 100.500 C 366.572 100.500,366.500 100.401,366.500 100.280 C 366.500 100.159,366.313 99.897,366.083 99.698 C 365.854 99.499,365.667 99.265,365.667 99.179 C 365.667 99.093,365.498 98.969,365.292 98.904 C 365.085 98.839,364.804 98.656,364.666 98.498 C 364.528 98.339,364.097 98.156,363.707 98.090 C 363.318 98.024,363.000 97.902,363.000 97.819 C 363.000 97.735,362.625 97.667,362.167 97.667 C 361.708 97.667,361.333 97.592,361.333 97.500 C 361.333 97.406,360.861 97.333,360.250 97.333 C 359.639 97.333,359.167 97.406,359.167 97.500 M173.333 108.000 L 173.333 118.333 174.833 118.333 L 176.333 118.333 176.333 108.000 L 176.333 97.667 174.833 97.667 L 173.333 97.667 173.333 108.000 M195.000 108.006 L 195.000 118.345 196.708 118.297 L 198.417 118.250 198.503 110.583 C 198.550 106.367,198.606 103.031,198.628 103.172 C 198.649 103.312,198.817 103.535,199.000 103.667 C 199.183 103.799,199.333 104.010,199.333 104.136 C 199.333 104.402,199.857 105.390,200.042 105.472 C 200.110 105.503,200.167 105.672,200.167 105.847 C 200.167 106.023,200.236 106.167,200.320 106.167 C 200.404 106.167,200.523 106.392,200.583 106.667 C 200.644 106.942,200.762 107.167,200.847 107.167 C 200.931 107.167,201.000 107.317,201.000 107.500 C 201.000 107.683,201.074 107.833,201.163 107.833 C 201.253 107.833,201.374 108.021,201.432 108.250 C 201.489 108.479,201.603 108.667,201.685 108.667 C 201.766 108.667,201.833 108.779,201.833 108.917 C 201.833 109.054,201.900 109.167,201.981 109.167 C 202.063 109.167,202.179 109.429,202.239 109.750 C 202.299 110.071,202.420 110.333,202.508 110.333 C 202.595 110.333,202.667 110.446,202.667 110.583 C 202.667 110.721,202.742 110.833,202.833 110.833 C 202.925 110.833,203.000 110.983,203.000 111.167 C 203.000 111.350,203.074 111.500,203.163 111.500 C 203.253 111.500,203.374 111.688,203.432 111.917 C 203.489 112.146,203.603 112.333,203.685 112.333 C 203.766 112.333,203.833 112.446,203.833 112.583 C 203.833 112.721,203.900 112.833,203.981 112.833 C 204.063 112.833,204.179 113.096,204.239 113.417 C 204.299 113.737,204.420 114.000,204.508 114.000 C 204.595 114.000,204.667 114.103,204.667 114.230 C 204.667 114.356,204.779 114.553,204.917 114.667 C 205.054 114.781,205.167 115.015,205.167 115.187 C 205.167 115.359,205.242 115.500,205.333 115.500 C 205.425 115.500,205.500 115.612,205.500 115.750 C 205.500 115.888,205.557 116.000,205.627 116.000 C 205.761 116.000,206.333 117.217,206.333 117.501 C 206.333 117.592,206.400 117.667,206.481 117.667 C 206.562 117.667,206.667 117.817,206.715 118.000 C 206.796 118.310,206.942 118.333,208.818 118.333 L 210.833 118.333 210.833 108.000 L 210.833 97.667 209.333 97.667 L 207.833 97.667 207.833 105.167 C 207.833 109.292,207.790 112.667,207.738 112.667 C 207.606 112.667,207.167 112.215,207.167 112.079 C 207.167 111.914,206.618 110.764,206.494 110.667 C 206.435 110.621,206.248 110.265,206.078 109.875 C 205.908 109.485,205.709 109.167,205.635 109.167 C 205.561 109.167,205.500 109.054,205.500 108.917 C 205.500 108.779,205.428 108.667,205.341 108.667 C 205.253 108.667,205.133 108.404,205.072 108.083 C 205.012 107.763,204.896 107.500,204.815 107.500 C 204.733 107.500,204.667 107.388,204.667 107.250 C 204.667 107.112,204.600 107.000,204.518 107.000 C 204.436 107.000,204.322 106.813,204.265 106.583 C 204.207 106.354,204.087 106.167,203.997 106.167 C 203.907 106.167,203.833 106.023,203.833 105.847 C 203.833 105.672,203.777 105.503,203.708 105.472 C 203.527 105.392,203.000 104.348,203.000 104.070 C 203.000 103.940,202.925 103.833,202.833 103.833 C 202.742 103.833,202.667 103.721,202.667 103.583 C 202.667 103.446,202.593 103.333,202.503 103.333 C 202.413 103.333,202.293 103.146,202.235 102.917 C 202.178 102.688,202.064 102.500,201.982 102.500 C 201.900 102.500,201.833 102.350,201.833 102.167 C 201.833 101.983,201.764 101.833,201.680 101.833 C 201.596 101.833,201.480 101.623,201.424 101.366 C 201.367 101.109,201.174 100.792,200.994 100.662 C 200.814 100.533,200.667 100.323,200.667 100.197 C 200.667 99.931,200.143 98.943,199.958 98.861 C 199.890 98.831,199.833 98.662,199.833 98.486 C 199.833 98.310,199.758 98.167,199.667 98.167 C 199.575 98.167,199.500 98.054,199.500 97.917 C 199.500 97.707,199.139 97.667,197.250 97.667 L 195.000 97.667 195.000 108.006 M229.500 108.000 L 229.500 118.333 231.250 118.333 L 233.000 118.333 233.000 113.750 L 233.000 109.167 237.250 109.167 L 241.500 109.167 241.500 107.750 L 241.500 106.333 237.250 106.333 L 233.000 106.333 233.000 103.500 L 233.000 100.667 237.500 100.667 L 242.000 100.667 242.000 99.167 L 242.000 97.667 235.750 97.667 L 229.500 97.667 229.500 108.000 M290.667 99.167 L 290.667 100.667 293.667 100.667 L 296.667 100.667 296.667 109.500 L 296.667 118.333 298.333 118.333 L 300.000 118.333 300.000 109.500 L 300.000 100.667 302.833 100.667 L 305.667 100.667 305.667 99.167 L 305.667 97.667 298.167 97.667 L 290.667 97.667 290.667 99.167 M322.077 97.875 C 322.033 97.990,322.016 102.621,322.040 108.167 L 322.083 118.250 328.542 118.294 L 335.000 118.337 335.000 117.419 C 335.000 116.913,335.075 116.500,335.167 116.500 C 335.258 116.500,335.333 116.275,335.333 116.000 L 335.333 115.500 330.417 115.500 L 325.500 115.500 325.500 112.250 L 325.500 109.000 330.000 109.000 L 334.500 109.000 334.500 107.583 L 334.500 106.167 330.000 106.167 L 325.500 106.167 325.500 103.417 L 325.500 100.667 330.167 100.667 L 334.833 100.667 334.833 99.167 L 334.833 97.667 328.495 97.667 C 323.578 97.667,322.138 97.713,322.077 97.875 M384.833 108.000 L 384.833 118.345 386.542 118.297 L 388.250 118.250 388.294 113.625 L 388.339 109.000 392.500 109.000 L 396.661 109.000 396.706 113.625 L 396.750 118.250 398.375 118.298 L 400.000 118.345 400.000 108.000 L 400.000 97.655 398.375 97.702 L 396.750 97.750 396.705 101.958 L 396.661 106.167 392.500 106.167 L 388.339 106.167 388.295 101.958 L 388.250 97.750 386.542 97.703 L 384.833 97.655 384.833 108.000 M269.125 100.792 C 269.163 100.906,269.263 101.000,269.346 101.000 C 269.699 101.000,271.167 102.472,271.167 102.826 C 271.167 102.922,271.238 103.000,271.326 103.000 C 271.413 103.000,271.534 103.263,271.594 103.583 C 271.655 103.904,271.770 104.167,271.852 104.167 C 271.933 104.167,272.000 104.423,272.000 104.736 C 272.000 105.049,272.089 105.335,272.197 105.371 C 272.464 105.460,272.452 110.877,272.184 110.966 C 272.083 111.000,272.000 111.209,272.000 111.431 C 272.000 111.652,271.935 111.833,271.855 111.833 C 271.775 111.833,271.661 112.133,271.603 112.500 C 271.544 112.867,271.422 113.167,271.331 113.167 C 271.241 113.167,271.167 113.276,271.167 113.409 C 271.167 113.676,270.045 114.833,269.786 114.833 C 269.696 114.833,269.476 115.002,269.297 115.208 C 268.912 115.653,265.349 115.798,265.208 115.375 C 265.170 115.260,265.033 115.167,264.903 115.167 C 264.773 115.167,264.667 115.093,264.667 115.003 C 264.667 114.913,264.479 114.793,264.250 114.735 C 264.021 114.678,263.833 114.530,263.833 114.408 C 263.833 114.286,263.690 114.085,263.515 113.963 C 263.341 113.840,263.060 113.424,262.893 113.037 C 262.725 112.650,262.538 112.333,262.476 112.333 C 262.415 112.333,262.313 111.958,262.250 111.500 C 262.187 111.042,262.067 110.667,261.984 110.667 C 261.787 110.667,261.787 105.382,261.984 105.260 C 262.067 105.208,262.187 104.791,262.250 104.333 C 262.313 103.875,262.433 103.500,262.516 103.500 C 262.599 103.500,262.667 103.388,262.667 103.250 C 262.667 103.112,262.742 103.000,262.833 103.000 C 262.925 103.000,263.000 102.894,263.000 102.765 C 263.000 102.430,264.311 101.132,265.000 100.785 C 265.715 100.426,269.005 100.431,269.125 100.792 " stroke="none" fill="#145464" fill-rule="evenodd"></path><path id="path2" d="M279.580 40.083 C 279.580 49.067,279.600 52.717,279.625 48.196 C 279.650 43.674,279.650 36.324,279.625 31.862 C 279.600 27.401,279.580 31.100,279.580 40.083 M190.625 56.958 C 194.315 56.983,200.352 56.983,204.042 56.958 C 207.731 56.933,204.713 56.913,197.333 56.913 C 189.954 56.913,186.935 56.933,190.625 56.958 " stroke="none" fill="#1cb870" fill-rule="evenodd"></path><path id="path3" d="M279.580 40.083 C 279.580 49.067,279.600 52.717,279.625 48.196 C 279.650 43.674,279.650 36.324,279.625 31.862 C 279.600 27.401,279.580 31.100,279.580 40.083 M190.625 56.958 C 194.315 56.983,200.352 56.983,204.042 56.958 C 207.731 56.933,204.713 56.913,197.333 56.913 C 189.954 56.913,186.935 56.933,190.625 56.958 " stroke="none" fill="#1cb870" fill-rule="evenodd"></path><path id="path4" d="M279.580 40.083 C 279.580 49.067,279.600 52.717,279.625 48.196 C 279.650 43.674,279.650 36.324,279.625 31.862 C 279.600 27.401,279.580 31.100,279.580 40.083 M190.625 56.958 C 194.315 56.983,200.352 56.983,204.042 56.958 C 207.731 56.933,204.713 56.913,197.333 56.913 C 189.954 56.913,186.935 56.933,190.625 56.958 " stroke="none" fill="#1cb870" fill-rule="evenodd"></path></g></svg>